<svg width="48" height="48" viewBox="0 0 48 48" fill="none" xmlns="http://www.w3.org/2000/svg">
<circle cx="23.2021" cy="27.4074" r="8.85926" fill="#FFC528"/>
<path d="M22.4667 47H7.13333C5.50667 47 3.94664 46.3538 2.79641 45.2036C1.64619 44.0534 1 42.4933 1 40.8667V7.13333C1 5.50667 1.64619 3.94663 2.79641 2.79641C3.94664 1.64619 5.50667 1 7.13333 1H22.4667C24.0933 1 25.6534 1.64619 26.8036 2.79641C27.9538 3.94663 28.6 5.50667 28.6 7.13333V11.7333" stroke="#1D292E" stroke-width="1.5" stroke-linecap="round" stroke-linejoin="round"/>
<path d="M1 37.8H13.2667" stroke="#1D292E" stroke-width="1.5" stroke-linecap="round" stroke-linejoin="round"/>
<path d="M46.767 32.4886L41.7683 27.4879C40.7418 26.4612 39.3843 25.832 37.9374 25.7122C36.4905 25.5925 35.048 25.9898 33.8666 26.8336L30.5055 29.2359L26.1672 24.8996C25.8876 24.5932 25.5488 24.3466 25.1712 24.1749C24.7937 24.0032 24.3852 23.9099 23.9705 23.9006C23.5558 23.8912 23.1435 23.9662 22.7586 24.1208C22.3737 24.2754 22.0242 24.5065 21.7312 24.8C21.4381 25.0936 21.2077 25.4436 21.0538 25.8288C20.9 26.214 20.8258 26.6264 20.8359 27.041C20.846 27.4557 20.9401 27.864 21.1125 28.2413C21.285 28.6185 21.5321 28.9569 21.8391 29.2359L29.4281 36.8248L26.8827 37.6733C26.0955 37.9326 25.4325 38.4748 25.0222 39.1949C24.6118 39.915 24.4832 40.7618 24.6613 41.5713C24.8395 42.3807 25.3116 43.0953 25.9864 43.5766C26.6611 44.0579 27.4905 44.2717 28.3139 44.1767L35.9355 43.3303" stroke="#1D292E" stroke-width="1.5" stroke-linecap="round" stroke-linejoin="round"/>
<path d="M17.8748 33.5087C16.6503 32.8054 15.6041 31.8296 14.8172 30.657C14.0304 29.4843 13.5241 28.1463 13.3375 26.7465C13.1509 25.3467 13.2891 23.9228 13.7413 22.585C14.1935 21.2472 14.9475 20.0314 15.9451 19.0319C16.9427 18.0324 18.157 17.2759 19.4939 16.8211C20.8308 16.3663 22.2545 16.2254 23.6546 16.4092C25.0548 16.5931 26.3938 17.0968 27.568 17.8813C28.7422 18.6659 29.72 19.7102 30.4257 20.9333" stroke="#1D292E" stroke-width="1.5" stroke-linecap="round" stroke-linejoin="round"/>
</svg>
