<svg width="48" height="48" viewBox="0 0 48 48" fill="none" xmlns="http://www.w3.org/2000/svg">
<path fill-rule="evenodd" clip-rule="evenodd" d="M26.8263 22.9524C25.9069 22.0627 25.6369 20.7245 26.1432 19.5668C26.6495 18.4092 27.1114 16.3784 28.4131 16.3937C29.7149 16.4091 32.1792 17.4102 32.656 18.5794C33.5977 20.8967 33.9438 19.3625 35.8857 17.4881C36.5109 16.8845 38.8509 15.744 38.2257 15.1404L36.2877 12.2443C36.2877 12.2443 35.815 11.0653 35.6781 9.57225C35.5412 8.07917 34.3144 6.89598 32.7674 6.76507C31.2204 6.63415 29.799 7.59323 29.395 9.04054L26.8327 6.56732C26.2074 5.96389 25.1936 5.96389 24.5683 6.56732C22.3135 8.72724 22.8302 12.3706 20.453 13.2659C20.453 13.2659 19.004 14.0973 17.3386 13.9349C17.0988 13.9116 16.8608 13.9937 16.6907 14.1585L14.3702 16.3937C13.7451 16.9973 13.7451 17.9758 14.3702 18.5794L23.5177 28.0791C24.1431 28.6825 25.0687 27.9272 25.6941 27.3238L28.1956 24.9093C28.3865 24.7249 28.4683 24.4601 28.4131 24.2049C28.3579 23.9497 28.1732 23.7385 27.9217 23.6433C27.5106 23.4893 27.1375 23.2539 26.8263 22.9524Z" fill="#FFC528"/>
<path d="M7.74648 45.9999L3.88868 41.1833C2.66567 39.6559 1.99957 37.7581 2 35.8021V25.9067C2 24.3213 3.28639 23.0362 4.87324 23.0362V23.0362C6.46009 23.0362 7.74648 24.3213 7.74648 25.9067V33.0828" stroke="#1D292E" stroke-width="1.5" stroke-linecap="round" stroke-linejoin="round"/>
<path d="M16.3661 46V39.9988C16.3676 38.2958 15.8629 36.6307 14.916 35.2147L12.7266 31.9424C12.3494 31.314 11.7311 30.8674 11.0157 30.7065C10.3002 30.5456 9.54997 30.6845 8.93969 31.0908V31.0908C7.81478 31.8406 7.42473 33.3099 8.02983 34.5181L10.6196 38.8238" stroke="#1D292E" stroke-width="1.5" stroke-linecap="round" stroke-linejoin="round"/>
<path d="M40.3096 45.9999L44.1674 41.1833C45.3904 39.6559 46.0565 37.7581 46.0561 35.8021V25.9067C46.0561 24.3213 44.7697 23.0362 43.1828 23.0362V23.0362C41.596 23.0362 40.3096 24.3213 40.3096 25.9067V33.0828" stroke="#1D292E" stroke-width="1.5" stroke-linecap="round" stroke-linejoin="round"/>
<path d="M31.6904 46V39.9988C31.6889 38.2958 32.1935 36.6307 33.1405 35.2147L35.3299 31.9424C35.707 31.314 36.3254 30.8674 37.0408 30.7065C37.7563 30.5456 38.5065 30.6845 39.1168 31.0908V31.0908C40.2424 31.84 40.6333 33.3094 40.0286 34.5181L37.4369 38.8238" stroke="#1D292E" stroke-width="1.5" stroke-linecap="round" stroke-linejoin="round"/>
<path fill-rule="evenodd" clip-rule="evenodd" d="M26.9967 22.8449C25.897 21.7435 25.574 20.0868 26.1796 18.6536C26.7851 17.2204 28.1987 16.296 29.7558 16.315C31.3128 16.334 32.7034 17.2926 33.2737 18.7401C33.3917 19.0406 33.6533 19.2614 33.9696 19.3274C34.2858 19.3933 34.6141 19.2956 34.8425 19.0674L37.8326 16.0802C38.5804 15.3329 38.5804 14.1216 37.8326 13.3743L34.7678 10.3125C36.5609 9.82827 37.748 8.1288 37.5843 6.28037C37.4205 4.43195 35.9531 2.96717 34.1028 2.8051C32.2525 2.64302 30.5523 3.83036 30.0691 5.62212L27.0043 2.56029C26.2563 1.81324 25.0438 1.81324 24.2958 2.56029L21.5126 5.31976C21.3088 5.52271 21.2072 5.80642 21.2358 6.09245C21.2644 6.37847 21.4202 6.6365 21.6601 6.79518C22.8658 7.60521 23.5091 9.02699 23.3211 10.4664C23.1331 11.9058 22.1462 13.1151 20.7727 13.5888C19.3993 14.0626 17.8758 13.7194 16.8388 12.7026C16.6566 12.5214 16.4935 12.322 16.3523 12.1075C16.1938 11.8668 15.9353 11.7103 15.6484 11.6814C15.3616 11.6524 15.0769 11.7541 14.8735 11.9582L12.0979 14.7253C11.3502 15.4726 11.3502 16.6839 12.0979 17.4312L22.9339 28.2567C23.6819 29.0037 24.8944 29.0037 25.6424 28.2567L28.6344 25.2676C28.8628 25.0393 28.9607 24.7114 28.8947 24.3955C28.8286 24.0796 28.6076 23.8182 28.3069 23.7003C27.8152 23.5096 27.3689 23.2183 26.9967 22.8449V22.8449Z" stroke="#1D292E" stroke-width="1.5" stroke-linecap="round" stroke-linejoin="round"/>
</svg>
