<svg width="48" height="48" viewBox="0 0 48 48" fill="none" xmlns="http://www.w3.org/2000/svg">
<circle cx="34.4238" cy="36.4236" r="10.1777" stroke="#1D292E" stroke-width="1.5"/>
<circle cx="35.0855" cy="37.1764" r="8.7007" fill="#FFC528"/>
<path d="M34.8471 41.2796V40.1659C36.0909 39.9699 36.775 39.0934 36.775 38.1447C36.775 37.2166 36.1842 36.4432 34.8782 36.1544L33.935 35.9379C33.4479 35.8347 33.2198 35.5666 33.2198 35.2469C33.2198 34.8241 33.5826 34.4426 34.246 34.4426C35.0959 34.4426 35.3654 35.0407 35.4276 35.4016L36.7025 35.0407C36.5574 34.3498 36.0391 33.5248 34.8471 33.3082V32.1739H33.7899V33.2773C32.6808 33.4526 31.8309 34.257 31.8309 35.3501C31.8309 36.34 32.5254 37.0413 33.6448 37.2888L34.5984 37.495C35.1166 37.6084 35.3758 37.8766 35.3758 38.2272C35.3758 38.6809 34.9819 39.0006 34.3082 39.0006C33.3546 39.0006 32.9192 38.4025 32.857 37.7528L31.5718 38.0622C31.6651 38.9387 32.3492 39.9803 33.7899 40.1762V41.2796H34.8471Z" fill="#1D292E"/>
<path d="M25.5595 46H3.97856C3.24908 46 2.65771 45.4404 2.65771 44.75V2.25C2.65771 1.55964 3.24908 1 3.97856 1H35.679C36.4085 1 36.9998 1.55964 36.9998 2.25V23.1341" stroke="#1D292E" stroke-width="1.5" stroke-linecap="round" stroke-linejoin="round"/>
<path d="M10 12H29" stroke="#1D292E" stroke-width="1.5" stroke-linecap="round" stroke-linejoin="round"/>
<path d="M10 17.5721H29" stroke="#1D292E" stroke-width="1.5" stroke-linecap="round" stroke-linejoin="round"/>
<path d="M10 23.131H21" stroke="#1D292E" stroke-width="1.5" stroke-linecap="round" stroke-linejoin="round"/>
</svg>
