<svg width="48" height="48" viewBox="0 0 48 48" fill="none" xmlns="http://www.w3.org/2000/svg">
<path d="M28.1221 11.1003C29.2932 12.2185 29.2932 14.0312 28.1221 15.1495" stroke="#1D292E" stroke-width="1.5" stroke-linecap="round" stroke-linejoin="round"/>
<path d="M32.3638 7.04919C34.0516 8.66031 34.9998 10.8455 34.9998 13.1239C34.9998 15.4024 34.0516 17.5875 32.3638 19.1986" stroke="#1D292E" stroke-width="1.5" stroke-linecap="round" stroke-linejoin="round"/>
<path d="M32.3638 7.04919C34.0516 8.66031 34.9998 10.8455 34.9998 13.1239C34.9998 15.4024 34.0516 17.5875 32.3638 19.1986" stroke="#1D292E" stroke-width="1.5" stroke-linecap="round" stroke-linejoin="round"/>
<path d="M36.6001 3C39.4134 5.68521 40.9939 9.32726 40.9939 13.1249C40.9939 16.9225 39.4134 20.5645 36.6001 23.2497" stroke="#1D292E" stroke-width="1.5" stroke-linecap="round" stroke-linejoin="round"/>
<path d="M36.6001 3C39.4134 5.68521 40.9939 9.32726 40.9939 13.1249C40.9939 16.9225 39.4134 20.5645 36.6001 23.2497" stroke="#1D292E" stroke-width="1.5" stroke-linecap="round" stroke-linejoin="round"/>
<path d="M19.8781 11.1003C18.707 12.2185 18.707 14.0312 19.8781 15.1495" stroke="#1D292E" stroke-width="1.5" stroke-linecap="round" stroke-linejoin="round"/>
<path d="M15.6361 7.04919C13.9482 8.66031 13 10.8455 13 13.1239C13 15.4024 13.9482 17.5875 15.6361 19.1986" stroke="#1D292E" stroke-width="1.5" stroke-linecap="round" stroke-linejoin="round"/>
<path d="M15.6361 7.04919C13.9482 8.66031 13 10.8455 13 13.1239C13 15.4024 13.9482 17.5875 15.6361 19.1986" stroke="#1D292E" stroke-width="1.5" stroke-linecap="round" stroke-linejoin="round"/>
<path d="M11.4 3C8.58673 5.68521 7.00623 9.32726 7.00623 13.1249C7.00623 16.9225 8.58673 20.5645 11.4 23.2497" stroke="#1D292E" stroke-width="1.5" stroke-linecap="round" stroke-linejoin="round"/>
<path d="M11.4 3C8.58673 5.68521 7.00623 9.32726 7.00623 13.1249C7.00623 16.9225 8.58673 20.5645 11.4 23.2497" stroke="#1D292E" stroke-width="1.5" stroke-linecap="round" stroke-linejoin="round"/>
<path fill-rule="evenodd" clip-rule="evenodd" d="M46.5384 38.6363C46.5384 40.3666 44.9093 41.7692 42.8996 41.7692H8.33106C6.32141 41.7692 4.69226 40.3666 4.69226 38.6363V35.5035C4.69226 33.7732 6.32141 32.3706 8.33106 32.3706H42.8996C44.9093 32.3706 46.5384 33.7732 46.5384 35.5035V38.6363Z" fill="#FFC528"/>
<path fill-rule="evenodd" clip-rule="evenodd" d="M47 37.3636C47 39.4723 45.2091 41.1818 43 41.1818H5C2.79086 41.1818 1 39.4723 1 37.3636V33.5454C1 31.4367 2.79086 29.7272 5 29.7272H43C45.2091 29.7272 47 31.4367 47 33.5454V37.3636Z" stroke="#1D292E" stroke-width="1.5" stroke-linecap="round" stroke-linejoin="round"/>
<path d="M9.49977 34.9773C9.22376 34.9773 9 35.191 9 35.4546C9 35.7182 9.22376 35.9318 9.49977 35.9318C9.77579 35.9318 9.99955 35.7182 9.99955 35.4546C9.99955 35.191 9.77579 34.9773 9.49977 34.9773V34.9773" stroke="#1D292E" stroke-width="1.5" stroke-linecap="round" stroke-linejoin="round"/>
<path d="M16.4998 34.9773C16.2238 34.9773 16 35.191 16 35.4546C16 35.7182 16.2238 35.9318 16.4998 35.9318C16.7758 35.9318 16.9995 35.7182 16.9995 35.4546C16.9995 35.191 16.7758 34.9773 16.4998 34.9773V34.9773" stroke="#1D292E" stroke-width="1.5" stroke-linecap="round" stroke-linejoin="round"/>
<path d="M24 29.7273V20.1818" stroke="#1D292E" stroke-width="1.5" stroke-linecap="round" stroke-linejoin="round"/>
<path d="M8 41.1818L5 45" stroke="#1D292E" stroke-width="1.5" stroke-linecap="round" stroke-linejoin="round"/>
<path d="M40 41.1818L43 45" stroke="#1D292E" stroke-width="1.5" stroke-linecap="round" stroke-linejoin="round"/>
</svg>
