<svg width="48" height="48" viewBox="0 0 48 48" fill="none" xmlns="http://www.w3.org/2000/svg">
<path fill-rule="evenodd" clip-rule="evenodd" d="M25.5 37C32.9558 37 39 30.9558 39 23.5C39 16.0442 32.9558 10 25.5 10C18.0442 10 12 16.0442 12 23.5C12 30.9558 18.0442 37 25.5 37Z" fill="#FFC528"/>
<path fill-rule="evenodd" clip-rule="evenodd" d="M25 26C26.6569 26 28 24.6569 28 23C28 21.3431 26.6569 20 25 20C23.3431 20 22 21.3431 22 23C22 24.6569 23.3431 26 25 26Z" fill="white"/>
<path fill-rule="evenodd" clip-rule="evenodd" d="M23.9997 46.6667C36.5181 46.6667 46.6663 36.5185 46.6663 24C46.6663 11.4816 36.5181 1.33337 23.9997 1.33337C11.4812 1.33337 1.33301 11.4816 1.33301 24C1.33301 36.5185 11.4812 46.6667 23.9997 46.6667Z" stroke="#1D292E" stroke-width="1.5" stroke-linecap="round" stroke-linejoin="round"/>
<path d="M35.8257 35.8261L26.083 26.0853" stroke="#1D292E" stroke-width="1.5" stroke-linecap="round" stroke-linejoin="round"/>
<path fill-rule="evenodd" clip-rule="evenodd" d="M23.9995 26.9565C25.6323 26.9565 26.956 25.6328 26.956 24C26.956 22.3671 25.6323 21.0435 23.9995 21.0435C22.3666 21.0435 21.043 22.3671 21.043 24C21.043 25.6328 22.3666 26.9565 23.9995 26.9565Z" stroke="#1D292E" stroke-width="1.5" stroke-linecap="round" stroke-linejoin="round"/>
<path d="M24 13.1594V21.0435" stroke="#1D292E" stroke-width="1.5" stroke-linecap="round" stroke-linejoin="round"/>
</svg>
