<svg width="49" height="48" viewBox="0 0 49 48" fill="none" xmlns="http://www.w3.org/2000/svg">
<path d="M25.8512 39.0478H13.6179L6.69338 45.0867V39.0478H3.23113C2.30786 39.0478 1.5 38.1085 1.5 37.0349V16.9055C1.5 15.8319 2.30786 14.8926 3.23113 14.8926H25.7358C26.659 14.8926 27.4669 15.8319 27.4669 16.9055V37.0349C27.4669 38.1085 26.7745 39.0478 25.8512 39.0478Z" fill="#FFC528"/>
<path d="M27.7735 38.363H14.7045L7.30695 44.7038V38.363H3.60818C2.62184 38.363 1.75879 37.3767 1.75879 36.2494V15.1136C1.75879 13.9863 2.62184 13 3.60818 13H27.6502C28.6366 13 29.4996 13.9863 29.4996 15.1136V36.2494C29.4996 37.3767 28.7598 38.363 27.7735 38.363Z" stroke="#1D292E" stroke-width="1.5" stroke-linecap="round" stroke-linejoin="round"/>
<path d="M7.30664 22.4404H23.9511" stroke="#1D292E" stroke-width="1.5" stroke-linecap="round" stroke-linejoin="round"/>
<path d="M7.30664 28.7812H20.2524" stroke="#1D292E" stroke-width="1.5" stroke-linecap="round" stroke-linejoin="round"/>
<path d="M29.8067 22.2H37.7L43.3 27V22.2H46.1C46.8467 22.2 47.5 21.4533 47.5 20.6V4.6C47.5 3.74667 46.8467 3 46.1 3H27.9C27.1533 3 26.5 3.74667 26.5 4.6V12.6" stroke="#1D292E" stroke-width="1.5" stroke-linecap="round" stroke-linejoin="round"/>
<path d="M43.2998 10.1465H30.6998" stroke="#1D292E" stroke-width="1.5" stroke-linecap="round" stroke-linejoin="round"/>
<path d="M43.2998 14.9463H33.4998" stroke="#1D292E" stroke-width="1.5" stroke-linecap="round" stroke-linejoin="round"/>
</svg>
