<svg width="24" height="25" viewBox="0 0 24 25" fill="none" xmlns="http://www.w3.org/2000/svg">
    <path fill-rule="evenodd" clip-rule="evenodd" d="M12.5543 24.2773H1.29725C0.580586 24.2773 0 23.6963 0 22.98V2.07043C0 1.35387 0.580678 0.773193 1.29725 0.773193H22.2069C22.9233 0.773193 23.5041 1.35387 23.5041 2.07043V22.98C23.5041 23.6964 22.9232 24.2773 22.2069 24.2773H16.2175V15.1752H19.2726L19.7301 11.628H16.2175V9.36327C16.2175 8.33626 16.5027 7.63639 17.9754 7.63639L19.8538 7.63557V4.46289C19.5289 4.41966 18.4139 4.32308 17.1166 4.32308C14.4084 4.32308 12.5543 5.97618 12.5543 9.01197V11.628H9.4913V15.1752H12.5543V24.2773Z" fill="white"/>
</svg>
