<svg width="80" height="80" viewBox="0 0 80 80" fill="none" xmlns="http://www.w3.org/2000/svg">
<circle cx="40" cy="40" r="40" fill="#FFC528"/>
<path d="M55 33V53.5714C55 55.4 53.9231 57 52.6923 57H27.3077C26.0769 57 25 55.4 25 53.5714V33" fill="white"/>
<path d="M53.0001 23.2H26.3502C25.7502 23.05 25.3002 23.5 25.1502 23.95L23.2002 33.25C23.2002 35.05 24.7002 36.55 26.5002 36.55C28.3002 36.55 29.8002 35.05 29.8002 33.25C29.8002 35.05 31.3002 36.55 33.1002 36.55C34.9002 36.55 36.4002 35.05 36.4002 33.25C36.4002 35.05 37.9002 36.55 39.7002 36.55C41.5002 36.55 43.0002 35.05 43.0002 33.25C43.0002 35.05 44.5002 36.55 46.3002 36.55C48.1002 36.55 49.6002 35.05 49.6002 33.25C49.6002 35.05 51.1002 36.55 52.9002 36.55C54.7002 36.55 56.2002 35.05 56.2002 33.25L54.1002 23.95C54.0001 23.5 53.5001 23.2 53.0001 23.2Z" fill="white"/>
<path d="M55 36V54C55 55.6 53.9231 57 52.6923 57H27.3077C26.0769 57 25 55.6 25 54V36" stroke="#1D292E" stroke-width="1.5" stroke-linejoin="round"/>
<path d="M52.9 23.2H26.35C25.75 23.05 25.3 23.5 25.15 23.95L23.2 33.25C23.2 35.05 24.7 36.55 26.5 36.55C28.3 36.55 29.8 35.05 29.8 33.25C29.8 35.05 31.3 36.55 33.1 36.55C34.9 36.55 36.4 35.05 36.4 33.25C36.4 35.05 37.9 36.55 39.7 36.55C41.5 36.55 43 35.05 43 33.25C43 35.05 44.5 36.55 46.3 36.55C48.1 36.55 49.6 35.05 49.6 33.25C49.6 35.05 51.1 36.55 52.9 36.55C54.7 36.55 56.2 35.05 56.2 33.25L54.1 23.95C53.9999 23.5 53.5 23.05 52.9 23.2Z" stroke="#1D292E" stroke-width="1.5" stroke-linecap="round" stroke-linejoin="round"/>
<path d="M50.1999 46.75C50.1999 44.2 48.25 42.25 45.7 42.25C43.15 42.25 41.2 44.2 41.2 46.75V56.95H50.1999V46.75Z" stroke="#1D292E" stroke-width="1.5" stroke-linecap="round" stroke-linejoin="round"/>
<path d="M29.8 46.75C29.8 46.15 30.25 45.55 31 45.55H35.5C36.1 45.55 36.7 46 36.7 46.75V51.25C36.7 51.85 36.25 52.45 35.5 52.45H31C30.4 52.45 29.8 52 29.8 51.25V46.75Z" stroke="#1D292E" stroke-width="1.5" stroke-linecap="round" stroke-linejoin="round"/>
<path d="M46.15 49C46.4501 49 46.75 49.3 46.75 49.6C46.75 49.9 46.4501 50.2 46.15 50.2C45.85 50.2 45.55 49.9 45.55 49.6C45.55 49.3 45.85 49 46.15 49Z" stroke="#1D292E" stroke-width="1.5" stroke-linecap="round" stroke-linejoin="round"/>
</svg>
