<svg width="32" height="32" viewBox="0 0 32 32" fill="none" xmlns="http://www.w3.org/2000/svg">
<path d="M16 30C24.0081 30 30.5 23.5081 30.5 15.5C30.5 7.49187 24.0081 1 16 1C7.99187 1 1.5 7.49187 1.5 15.5C1.5 23.5081 7.99187 30 16 30Z" fill="url(#paint0_linear_3775_170350)"/>
<path d="M7.14889 19.7029C9.81753 19.7029 11.9809 17.5396 11.9809 14.8709C11.9809 12.2023 9.81753 10.0389 7.14889 10.0389C4.48025 10.0389 2.31689 12.2023 2.31689 14.8709C2.31689 17.5396 4.48025 19.7029 7.14889 19.7029Z" fill="url(#paint1_radial_3775_170350)"/>
<path d="M24.0808 16.594C26.75 16.594 28.9138 14.4302 28.9138 11.761C28.9138 9.09179 26.75 6.92798 24.0808 6.92798C21.4116 6.92798 19.2478 9.09179 19.2478 11.761C19.2478 14.4302 21.4116 16.594 24.0808 16.594Z" fill="url(#paint2_radial_3775_170350)"/>
<path d="M17.0974 9.96648C18.5409 7.64748 21.3349 7.15448 23.4829 8.83998C23.8129 9.09798 23.9184 8.73798 23.7854 8.49398C21.1274 3.63398 17.5284 4.26898 16.6934 9.74398C16.6534 10.0195 16.8759 10.3215 17.0974 9.96648Z" fill="#302C3B"/>
<path d="M6.68952 11.802C8.13352 9.48354 10.927 8.99004 13.0755 10.676C13.4065 10.934 13.5115 10.574 13.378 10.33C10.7205 5.46954 7.12202 6.10454 6.28652 11.58C6.24502 11.8545 6.46752 12.1565 6.68952 11.802Z" fill="#302C3B"/>
<path d="M20.2193 14.5335C18.0163 17.209 14.6868 17.7945 11.7038 16.035C11.2813 15.787 11.1213 16.164 11.2863 16.41C14.0738 20.5795 19.5473 19.613 20.7408 14.742C20.8113 14.456 20.5328 14.156 20.2193 14.5335Z" fill="#302C3B"/>
<path d="M18.6864 21.653C18.2674 22.08 18.0934 22.7515 18.2389 23.372C18.1374 23.4315 18.0414 23.506 17.9559 23.593C17.5514 24.003 17.4004 24.664 17.5664 25.2755C17.6719 25.6605 17.8914 25.9885 18.1944 26.226C18.1114 26.522 18.1074 26.8505 18.1914 27.1745C18.3624 27.8395 18.8574 28.3525 19.5194 28.5535C19.5134 28.749 19.5379 28.9515 19.5934 29.155C19.7889 29.8625 20.3259 30.39 21.0309 30.565C22.6024 30.9555 24.7584 31.308 27.5044 30.5595C28.2669 30.3515 28.9359 29.9595 29.4919 29.394C30.7779 28.0875 31.3024 25.9585 30.8269 23.9715C30.3904 22.1395 29.1959 20.784 27.5534 20.251C24.6394 19.306 23.1209 19.256 22.3134 20.076C22.1084 20.285 21.8134 20.7075 21.8454 21.393C21.2889 21.3575 20.6694 21.3 19.9989 21.211C19.4979 21.1455 19.0319 21.302 18.6864 21.653V21.653Z" fill="#99A8AE"/>
<path d="M18.9694 24.154C21.6764 24.587 23.2889 24.154 23.2889 24.154C23.2889 24.154 20.9004 24.047 19.5934 23.655C18.8699 23.4375 19.0134 22.045 19.8774 22.1605C23.0679 22.584 25.1059 22.3225 25.1059 22.3225C25.1059 22.3225 23.1459 22.0825 22.8344 21.6615C22.4084 19.948 24.7134 20.3355 27.2679 21.1635C31.0404 22.3865 30.9379 28.6345 27.2599 29.6365C24.7314 30.3255 22.7314 30.0035 21.2549 29.6365C20.2609 29.3895 20.3114 28.0425 20.8009 28.141C22.3909 28.461 23.2884 28.141 23.2884 28.141C23.2884 28.141 20.8764 27.9485 19.8069 27.6425C18.8129 27.3595 18.8889 25.9675 19.6574 26.1475C21.5529 26.592 23.2884 26.1475 23.2884 26.1475C23.2884 26.1475 20.8899 26.093 19.1399 25.6495C18.1404 25.3955 18.3329 24.052 18.9694 24.154Z" fill="white"/>
<path d="M13.3129 21.653C12.9679 21.3025 12.5014 21.1455 12.0004 21.212C11.3294 21.3015 10.7104 21.3585 10.1539 21.394C10.1864 20.7085 9.8919 20.286 9.6864 20.077C8.8784 19.2565 7.3604 19.307 4.4464 20.252C2.8034 20.785 1.6104 22.1405 1.1724 23.9725C0.697403 25.9595 1.2219 28.088 2.5074 29.395C3.0634 29.9605 3.7329 30.3525 4.4954 30.5605C7.2414 31.309 9.3974 30.9565 10.9689 30.566C11.6744 30.3905 12.2114 29.8635 12.4059 29.156C12.4619 28.9525 12.4859 28.7495 12.4804 28.5545C13.1429 28.354 13.6379 27.8405 13.8094 27.1755C13.8934 26.8515 13.8884 26.5225 13.8064 26.227C14.1074 25.989 14.3289 25.661 14.4334 25.2765C14.6004 24.6645 14.4479 24.004 14.0444 23.594C13.9584 23.5065 13.8634 23.4325 13.7614 23.373C13.9069 22.7515 13.7329 22.0795 13.3129 21.653V21.653Z" fill="#99A8AE"/>
<path d="M12.8598 25.649C11.1093 26.0925 8.7113 26.147 8.7113 26.147C8.7113 26.147 10.4468 26.5915 12.3418 26.147C13.1103 25.9675 13.1868 27.359 12.1928 27.642C11.1228 27.948 8.7113 28.1405 8.7113 28.1405C8.7113 28.1405 9.6088 28.4605 11.1988 28.1405C11.6883 28.0425 11.7388 29.389 10.7448 29.636C9.2678 30.003 7.2673 30.325 4.7388 29.636C1.0618 28.634 0.9593 22.386 4.7323 21.163C7.2868 20.335 9.5913 19.9475 9.1653 21.661C8.8533 22.082 6.8938 22.322 6.8938 22.322C6.8938 22.322 8.9323 22.583 12.1223 22.16C12.9868 22.045 13.1303 23.4375 12.4063 23.6545C11.0998 24.0465 8.7118 24.1535 8.7118 24.1535C8.7118 24.1535 10.3233 24.5865 13.0308 24.1535C13.6673 24.052 13.8588 25.3955 12.8598 25.649Z" fill="white"/>
<defs>
<linearGradient id="paint0_linear_3775_170350" x1="32.8001" y1="27.2645" x2="27.7647" y2="-1.30042" gradientUnits="userSpaceOnUse">
<stop stop-color="#FFA027"/>
<stop offset="0.2723" stop-color="#FFC151"/>
<stop offset="0.7633" stop-color="#FFC93F"/>
<stop offset="1" stop-color="#FFE261"/>
</linearGradient>
<radialGradient id="paint1_radial_3775_170350" cx="0" cy="0" r="1" gradientUnits="userSpaceOnUse" gradientTransform="translate(7.14884 14.871) scale(4.83205)">
<stop stop-color="#F18D84"/>
<stop offset="0.2514" stop-color="#F29180" stop-opacity="0.7486"/>
<stop offset="0.5118" stop-color="#F49E73" stop-opacity="0.4882"/>
<stop offset="0.7755" stop-color="#F8B25F" stop-opacity="0.2245"/>
<stop offset="1" stop-color="#FDCA47" stop-opacity="0.01"/>
</radialGradient>
<radialGradient id="paint2_radial_3775_170350" cx="0" cy="0" r="1" gradientUnits="userSpaceOnUse" gradientTransform="translate(24.0804 11.761) scale(4.83265)">
<stop stop-color="#F18D84"/>
<stop offset="0.2514" stop-color="#F29180" stop-opacity="0.7486"/>
<stop offset="0.5118" stop-color="#F49E73" stop-opacity="0.4882"/>
<stop offset="0.7755" stop-color="#F8B25F" stop-opacity="0.2245"/>
<stop offset="1" stop-color="#FDCA47" stop-opacity="0.01"/>
</radialGradient>
</defs>
</svg>
