<svg width="48" height="49" viewBox="0 0 48 49" fill="none" xmlns="http://www.w3.org/2000/svg">
<path d="M9 43.1699C9 45.3791 10.7909 47.1699 13 47.1699H31C32.1046 47.1699 33 46.2745 33 45.1699V40.1699C33 39.0654 32.1046 38.1699 31 38.1699H13C10.7909 38.1699 9 39.9608 9 42.1699V43.1699Z" fill="#FFC528"/>
<path d="M9.75 39.3936H36.25V43.1173C36.25 45.5508 34.4414 47.4199 32.3333 47.4199H13.6667C11.5586 47.4199 9.75 45.5508 9.75 43.1173V39.3936ZM36.25 37.8936H9.75V5.22255C9.75 2.78905 11.5586 0.919922 13.6667 0.919922H32.3333C34.4414 0.919922 36.25 2.78905 36.25 5.22255V28.7269V37.8936Z" stroke="#1D292E" stroke-width="1.5"/>
<circle cx="22.5" cy="42.6699" r="1" stroke="#1D292E"/>
<path d="M16.4349 13.4977C16.4349 12.4158 17.141 11.6769 18.0419 11.6769C18.9672 11.6769 19.6489 12.4158 19.6489 13.4977C19.6489 14.5797 18.9672 15.3449 18.0419 15.3449C17.141 15.3449 16.4349 14.6061 16.4349 13.4977ZM14 13.4977C14 15.8991 15.8262 17.7991 18.0419 17.7991C20.2333 17.7991 22.1082 15.9519 22.1082 13.4977C22.1082 11.0699 20.2333 9.16992 18.0419 9.16992C15.8505 9.16992 14 11.0699 14 13.4977ZM27.0753 22.5755C27.0753 21.4936 27.7814 20.7547 28.6823 20.7547C29.6076 20.7547 30.2894 21.4936 30.2894 22.5755C30.2894 23.6575 29.6076 24.4228 28.6823 24.4228C27.7814 24.4228 27.0753 23.6839 27.0753 22.5755ZM24.6404 22.5755C24.6404 24.9769 26.4666 26.8769 28.6823 26.8769C30.8737 26.8769 32.7486 25.0297 32.7486 22.5755C32.7486 20.1477 30.8737 18.2477 28.6823 18.2477C26.491 18.2477 24.6404 20.1477 24.6404 22.5755ZM19.2106 26.5867L30.3624 9.4602H27.5379L16.3862 26.5867H19.2106Z" fill="#1D292E"/>
</svg>
