<svg width="25" height="25" viewBox="0 0 25 25" fill="none" xmlns="http://www.w3.org/2000/svg">
    <path fill-rule="evenodd" clip-rule="evenodd" d="M12.5001 0.927795C9.30843 0.927795 8.90822 0.941324 7.65474 0.998517C6.40387 1.05557 5.54957 1.25425 4.80206 1.54479C4.02925 1.84507 3.37387 2.24691 2.72049 2.90024C2.06716 3.55362 1.66532 4.209 1.36504 4.9818C1.0745 5.72932 0.875821 6.58362 0.818768 7.83449C0.761575 9.08797 0.748047 9.48818 0.748047 12.6799C0.748047 15.8715 0.761575 16.2717 0.818768 17.5252C0.875821 18.7761 1.0745 19.6304 1.36504 20.3779C1.66532 21.1507 2.06716 21.8061 2.72049 22.4594C3.37387 23.1128 4.02925 23.5146 4.80206 23.8149C5.54957 24.1054 6.40387 24.3041 7.65474 24.3612C8.90822 24.4184 9.30843 24.4319 12.5001 24.4319C15.6918 24.4319 16.092 24.4184 17.3454 24.3612C18.5963 24.3041 19.4506 24.1054 20.1981 23.8149C20.9709 23.5146 21.6263 23.1128 22.2797 22.4594C22.933 21.8061 23.3349 21.1507 23.6352 20.3779C23.9257 19.6304 24.1244 18.7761 24.1814 17.5252C24.2386 16.2717 24.2521 15.8715 24.2521 12.6799C24.2521 9.48818 24.2386 9.08797 24.1814 7.83449C24.1244 6.58362 23.9257 5.72932 23.6352 4.9818C23.3349 4.209 22.933 3.55362 22.2797 2.90024C21.6263 2.24691 20.9709 1.84507 20.1981 1.54479C19.4506 1.25425 18.5963 1.05557 17.3454 0.998517C16.092 0.941324 15.6918 0.927795 12.5001 0.927795ZM12.5001 2.88646C15.6898 2.88646 16.0676 2.89865 17.3272 2.95612C18.4919 3.00923 19.1244 3.20383 19.5454 3.36743C20.103 3.58413 20.5009 3.84299 20.9189 4.26103C21.337 4.67903 21.5958 5.07697 21.8125 5.63456C21.9761 6.0555 22.1707 6.68802 22.2238 7.85272C22.2813 9.11235 22.2935 9.49018 22.2935 12.6799C22.2935 15.8695 22.2813 16.2473 22.2238 17.5069C22.1707 18.6716 21.9761 19.3042 21.8125 19.7251C21.5958 20.2827 21.337 20.6806 20.9189 21.0986C20.5009 21.5167 20.103 21.7755 19.5454 21.9922C19.1244 22.1558 18.4919 22.3504 17.3272 22.4035C16.0678 22.461 15.69 22.4732 12.5001 22.4732C9.31023 22.4732 8.93249 22.461 7.673 22.4035C6.5083 22.3504 5.87578 22.1558 5.45485 21.9922C4.89725 21.7755 4.49931 21.5167 4.08132 21.0986C3.66332 20.6806 3.40441 20.2827 3.18771 19.7251C3.02412 19.3042 2.82951 18.6716 2.7764 17.5069C2.71893 16.2473 2.70674 15.8695 2.70674 12.6799C2.70674 9.49018 2.71893 9.11235 2.7764 7.85272C2.82951 6.68802 3.02412 6.0555 3.18771 5.63456C3.40441 5.07697 3.66327 4.67903 4.08132 4.26103C4.49931 3.84299 4.89725 3.58413 5.45485 3.36743C5.87578 3.20383 6.5083 3.00923 7.673 2.95612C8.93263 2.89865 9.31047 2.88646 12.5001 2.88646ZM6.62407 12.6799C6.62407 9.43458 9.25483 6.80382 12.5001 6.80382C15.7453 6.80382 18.3761 9.43458 18.3761 12.6799C18.3761 15.9251 15.7453 18.5559 12.5001 18.5559C9.25483 18.5559 6.62407 15.9251 6.62407 12.6799ZM12.5001 16.5972C10.3366 16.5972 8.58277 14.8433 8.58277 12.6799C8.58277 10.5163 10.3366 8.76248 12.5001 8.76248C14.6636 8.76248 16.4175 10.5163 16.4175 12.6799C16.4175 14.8433 14.6636 16.5972 12.5001 16.5972ZM18.8658 7.78317C19.6771 7.78317 20.3348 7.1255 20.3348 6.31418C20.3348 5.50287 19.6771 4.84516 18.8658 4.84516C18.0545 4.84516 17.3968 5.50287 17.3968 6.31418C17.3968 7.1255 18.0545 7.78317 18.8658 7.78317Z" fill="white"/>
</svg>
