<svg width="24" height="24" viewBox="0 0 24 24" fill="none" xmlns="http://www.w3.org/2000/svg">
    <path fill-rule="evenodd" clip-rule="evenodd" d="M23.0205 21.5454H18.1077V14.5179C18.1077 12.6784 17.3392 11.4227 15.6493 11.4227C14.3568 11.4227 13.6379 12.2701 13.3034 13.0868C13.1779 13.3799 13.1975 13.7883 13.1975 14.1966V21.5454H8.33044C8.33044 21.5454 8.39318 9.09684 8.33044 7.96527H13.1975V10.0966C13.485 9.16468 15.0403 7.8347 17.5222 7.8347C20.6013 7.8347 23.0205 9.78807 23.0205 13.9943V21.5454ZM3.91127 6.85536H3.88207C2.42182 6.85536 1.4751 5.77652 1.4751 4.40902C1.4751 3.0149 2.44981 1.95868 3.93926 1.95868C5.42749 1.95868 6.34258 3.01224 6.37178 4.40503C6.37178 5.77253 5.42749 6.85536 3.91127 6.85536ZM2.45442 7.8347H6.37177V21.5454H2.45442V7.8347Z" fill="white"/>
</svg>
