<svg width="60" height="44" viewBox="0 0 60 44" fill="none" xmlns="http://www.w3.org/2000/svg">
<path d="M0 0.5C0 0.225 0.224998 0 0.5 0H38.5C38.775 0 39 0.225 39 0.5V33H0V0.5Z" fill="#99A8AE"/>
<rect width="36" height="29" transform="matrix(-1 0 0 1 37.5 1.5)" fill="url(#paint0_linear)"/>
<rect width="0.5" height="29" transform="matrix(-1 0 0 1 10.625 1.5)" fill="#CFD8DD"/>
<rect width="0.5" height="29" transform="matrix(-1 0 0 1 19.75 1.5)" fill="#CFD8DD"/>
<rect width="0.5" height="29" transform="matrix(-1 0 0 1 28.875 1.5)" fill="#CFD8DD"/>
<rect width="3" height="0.5" transform="matrix(-1 0 0 1 34.687 29.146)" fill="#E81C27"/>
<rect width="3" height="0.5" transform="matrix(-1 0 0 1 25.562 29.146)" fill="#E81C27"/>
<rect width="3" height="0.5" transform="matrix(-1 0 0 1 16.437 29.146)" fill="#E81C27"/>
<rect width="3" height="0.5" transform="matrix(-1 0 0 1 7.31201 29.146)" fill="#E81C27"/>
<path d="M45.4009 32V39H0.999878C0.449875 39 -0.00012207 38.55 -0.00012207 38V32H45.4009Z" fill="#77B516"/>
<path d="M50.4631 13.233C50.0071 12.168 46.7401 8.44802 45.0261 7.63902C43.6331 6.98202 40.0001 5.99902 40.0001 5.99902V10.04C40.0001 10.04 50.9791 14.438 50.4631 13.233Z" fill="#77B516"/>
<path d="M58.782 38.999H40V9.14203C40 9.14203 47.306 11.352 51.211 12.644C51.928 12.881 53.014 13.149 53.69 14.386C55.442 17.594 60 26.141 60 29.282C60 32.053 60 35.667 60 37.612C60 38.645 59.498 38.999 58.782 38.999Z" fill="url(#paint1_linear)"/>
<path d="M53.8961 18.829C54.2681 18.829 54.6731 19.12 54.7971 19.477L56.6401 24.05C56.7641 24.406 56.5631 24.67 56.1931 24.635L49.3191 24.027C48.9491 23.992 48.6461 23.654 48.6461 23.276V19.516C48.6461 19.138 48.9511 18.829 49.3221 18.829H53.8961V18.829Z" fill="url(#paint2_linear)"/>
<path fill-rule="evenodd" clip-rule="evenodd" d="M42.4721 34.853L42.6071 34.854L42.6691 26.351H47.8751V29.491C47.8751 29.886 48.1081 30.426 48.3931 30.695L51.3901 33.519C51.6741 33.786 52.2201 34.005 52.6081 34.005H57.1381C57.5471 34.005 57.8811 33.665 57.8811 33.247V25.51C57.8811 25.123 57.7551 24.52 57.6001 24.166L55.2441 18.79C55.0821 18.422 54.6271 18.122 54.2301 18.122H48.6191C48.2101 18.122 47.8761 18.462 47.8761 18.879V26.212H42.6721L42.7781 18.547L43.4541 12.401L43.3201 12.385L42.6431 18.539L42.4721 34.853ZM48.4861 30.593C48.2291 30.35 48.0111 29.844 48.0111 29.489V18.878C48.0111 18.536 48.2841 18.26 48.6191 18.26H54.2301C54.5741 18.26 54.9811 18.528 55.1211 18.846L57.4761 24.222C57.6261 24.562 57.7461 25.138 57.7461 25.509V33.246C57.7461 33.588 57.4741 33.866 57.1391 33.866H52.6091C52.2571 33.866 51.7411 33.66 51.4831 33.417L48.4861 30.593Z" fill="#77B516"/>
<path d="M48.205 13.285C48.268 13.985 42.891 13.469 42.655 13.206C42.418 12.941 42.379 10.886 43.114 11.028C47.949 11.969 48.104 12.158 48.205 13.285Z" fill="#302C3B"/>
<rect width="0.715" height="2.958" transform="matrix(-1 0 0 1 58.9961 30.881)" fill="#F59E01"/>
<rect width="1.004" height="2.958" transform="matrix(-1 0 0 1 60 30.881)" fill="#E6EBEF"/>
<path d="M48.8191 26.097C48.8191 25.87 48.8191 25.686 49.5431 25.686H50.3021C51.0281 25.686 51.0281 25.871 51.0281 26.097C51.0271 26.234 48.8191 26.234 48.8191 26.097Z" fill="#CFD8DD"/>
<path d="M48 30.999C52.418 30.999 56 34.58 56 38.999H40C40 34.58 43.582 30.999 48 30.999Z" fill="#89CC14"/>
<path d="M48 32.999C51.313 32.999 54 35.685 54 38.999H42C42 35.685 44.687 32.999 48 32.999Z" fill="#1A1626"/>
<path d="M48.001 44C45.2396 44 43.001 41.7614 43.001 39C43.001 36.2386 45.2396 34 48.001 34C50.7624 34 53.001 36.2386 53.001 39C53.001 41.7614 50.7624 44 48.001 44Z" fill="url(#paint3_radial)"/>
<path d="M45 39C45.002 40.656 46.344 41.998 48.001 41.999C49.658 41.999 51 40.656 51 39C51 37.343 49.657 35.999 48.001 35.999C46.343 35.999 45 37.343 45 39Z" fill="#99A8AE"/>
<path d="M48.001 41.57C46.5811 41.57 45.43 40.4189 45.43 38.999C45.43 37.5791 46.5811 36.428 48.001 36.428C49.4209 36.428 50.572 37.5791 50.572 38.999C50.572 40.4189 49.4209 41.57 48.001 41.57Z" fill="#E6EBEF"/>
<path d="M47.729 37.082C47.729 37.441 48.272 37.441 48.272 37.082C48.272 36.721 47.729 36.721 47.729 37.082Z" fill="#4E5E67"/>
<path d="M47.729 40.915C47.729 41.278 48.272 41.278 48.272 40.915C48.272 40.558 47.729 40.558 47.729 40.915Z" fill="#4E5E67"/>
<path d="M46.205 38.271C46.517 38.453 46.784 37.987 46.473 37.806C46.165 37.628 45.896 38.094 46.205 38.271Z" fill="#4E5E67"/>
<path d="M49.527 40.19C49.835 40.368 50.104 39.903 49.795 39.725C49.485 39.546 49.216 40.011 49.527 40.19Z" fill="#4E5E67"/>
<path d="M46.477 40.19C46.784 40.01 46.517 39.545 46.206 39.725C45.896 39.903 46.166 40.368 46.477 40.19Z" fill="#4E5E67"/>
<path d="M49.7951 38.271C50.1061 38.093 49.8351 37.629 49.5271 37.808C49.2171 37.987 49.4851 38.452 49.7951 38.271Z" fill="#4E5E67"/>
<path d="M48.001 40.499C47.1725 40.499 46.501 39.8275 46.501 38.999C46.501 38.1706 47.1725 37.499 48.001 37.499C48.8294 37.499 49.501 38.1706 49.501 38.999C49.501 39.8275 48.8294 40.499 48.001 40.499Z" fill="#99A8AE"/>
<path d="M46.801 38.999C46.801 39.662 47.342 40.199 48.004 40.199C48.665 40.199 49.2 39.662 49.2 38.999C49.2 38.336 48.665 37.8 48.004 37.8C47.342 37.8 46.801 38.336 46.801 38.999Z" fill="#E6EBEF"/>
<path d="M7 32.999C10.313 32.999 13 35.685 13 38.999H1C1 35.685 3.687 32.999 7 32.999Z" fill="#1A1626"/>
<path d="M7 44C4.23858 44 2 41.7614 2 39C2 36.2386 4.23858 34 7 34C9.76142 34 12 36.2386 12 39C12 41.7614 9.76142 44 7 44Z" fill="url(#paint4_radial)"/>
<path d="M4 39C4.001 40.657 5.344 41.998 7 41.999C8.657 41.999 10 40.657 10 39C10 37.342 8.656 35.999 7 35.999C5.343 35.999 4 37.342 4 39Z" fill="#E6EBEF"/>
<path d="M7.00008 41.455C5.64422 41.455 4.54508 40.3558 4.54508 39C4.54508 37.6441 5.64422 36.545 7.00008 36.545C8.35594 36.545 9.45508 37.6441 9.45508 39C9.45508 40.3558 8.35594 41.455 7.00008 41.455Z" fill="#99A8AE"/>
<path d="M6.76198 37.315C6.76198 37.63 7.23998 37.63 7.23998 37.315C7.23898 36.997 6.76198 36.997 6.76198 37.315Z" fill="#4E5E67"/>
<path d="M6.76198 40.683C6.76198 41.002 7.23998 41.002 7.23998 40.683C7.23898 40.368 6.76198 40.368 6.76198 40.683Z" fill="#4E5E67"/>
<path d="M5.42202 38.36C5.69602 38.519 5.93202 38.109 5.65802 37.952C5.38702 37.794 5.15002 38.204 5.42202 38.36Z" fill="#4E5E67"/>
<path d="M8.34104 40.046C8.61204 40.203 8.84904 39.794 8.57704 39.638C8.30504 39.479 8.06704 39.889 8.34104 40.046Z" fill="#4E5E67"/>
<path d="M5.66091 40.046C5.93091 39.889 5.69591 39.48 5.42391 39.638C5.15091 39.794 5.38891 40.203 5.66091 40.046Z" fill="#4E5E67"/>
<path d="M8.57706 38.36C8.84906 38.204 8.61206 37.796 8.34106 37.953C8.06806 38.109 8.30506 38.519 8.57706 38.36Z" fill="#4E5E67"/>
<path d="M7.00112 39.691C6.61893 39.691 6.30912 39.3812 6.30912 38.999C6.30912 38.6168 6.61893 38.307 7.00112 38.307C7.3833 38.307 7.69312 38.6168 7.69312 38.999C7.69312 39.3812 7.3833 39.691 7.00112 39.691Z" fill="#4E5E67"/>
<path d="M20.312 32.999C23.625 32.999 26.312 35.685 26.312 38.999H14.312C14.312 35.685 16.999 32.999 20.312 32.999Z" fill="#1A1626"/>
<path d="M20.313 44C17.5516 44 15.313 41.7614 15.313 39C15.313 36.2386 17.5516 34 20.313 34C23.0744 34 25.313 36.2386 25.313 39C25.313 41.7614 23.0744 44 20.313 44Z" fill="url(#paint5_radial)"/>
<path d="M17.312 39C17.314 40.657 18.656 41.998 20.313 41.999C21.97 41.999 23.312 40.657 23.312 39C23.312 37.342 21.968 35.999 20.313 35.999C18.655 35.999 17.312 37.342 17.312 39Z" fill="#E6EBEF"/>
<path d="M20.3131 41.455C18.9572 41.455 17.8581 40.3558 17.8581 39C17.8581 37.6441 18.9572 36.545 20.3131 36.545C21.6689 36.545 22.7681 37.6441 22.7681 39C22.7681 40.3558 21.6689 41.455 20.3131 41.455Z" fill="#99A8AE"/>
<path d="M20.074 37.315C20.074 37.63 20.552 37.63 20.552 37.315C20.552 36.997 20.074 36.997 20.074 37.315Z" fill="#4E5E67"/>
<path d="M20.074 40.683C20.074 41.002 20.552 41.002 20.552 40.683C20.552 40.368 20.074 40.368 20.074 40.683Z" fill="#4E5E67"/>
<path d="M18.735 38.36C19.008 38.519 19.244 38.109 18.97 37.952C18.7 37.794 18.464 38.204 18.735 38.36Z" fill="#4E5E67"/>
<path d="M21.6541 40.046C21.9251 40.203 22.1611 39.794 21.8891 39.638C21.6171 39.479 21.3811 39.889 21.6541 40.046Z" fill="#4E5E67"/>
<path d="M18.974 40.046C19.245 39.889 19.009 39.48 18.737 39.638C18.465 39.794 18.701 40.203 18.974 40.046Z" fill="#4E5E67"/>
<path d="M21.89 38.36C22.162 38.204 21.925 37.796 21.655 37.953C21.382 38.109 21.617 38.519 21.89 38.36Z" fill="#4E5E67"/>
<path d="M20.3141 39.691C19.9319 39.691 19.6221 39.3812 19.6221 38.999C19.6221 38.6168 19.9319 38.307 20.3141 38.307C20.6963 38.307 21.0061 38.6168 21.0061 38.999C21.0061 39.3812 20.6963 39.691 20.3141 39.691Z" fill="#4E5E67"/>
<path d="M55.1031 16.89C55.1031 17.835 55.1031 18.83 55.1031 18.83L54.3691 19.289C54.3691 19.289 54.3691 17.719 54.3691 16.89C54.3681 16.317 55.1031 16.319 55.1031 16.89Z" fill="#4E5E67"/>
<path d="M55.103 22.768C55.103 22.925 54.991 23.054 54.853 23.054H53.601C53.464 23.054 53.351 22.925 53.351 22.768V19.117C53.351 18.961 53.464 18.831 53.601 18.831H55.103V22.768Z" fill="#1A1626"/>
<defs>
<linearGradient id="paint0_linear" x1="35.9997" y1="29" x2="35.9997" y2="0.000501266" gradientUnits="userSpaceOnUse">
<stop stop-color="#CFD8DD"/>
<stop offset="0.0487" stop-color="#D3DBE0"/>
<stop offset="0.2945" stop-color="#E1E7EB"/>
<stop offset="0.503" stop-color="#E6EBEF"/>
</linearGradient>
<linearGradient id="paint1_linear" x1="40" y1="38.999" x2="40" y2="9.14213" gradientUnits="userSpaceOnUse">
<stop stop-color="#77B516"/>
<stop offset="0.9753" stop-color="#99D334"/>
<stop offset="1" stop-color="#9AD435"/>
</linearGradient>
<linearGradient id="paint2_linear" x1="48.6457" y1="24.6377" x2="48.6457" y2="18.8291" gradientUnits="userSpaceOnUse">
<stop stop-color="#302C3B"/>
<stop offset="0.2926" stop-color="#454754"/>
<stop offset="0.7557" stop-color="#636D78"/>
<stop offset="1" stop-color="#6E7B85"/>
</linearGradient>
<radialGradient id="paint3_radial" cx="0" cy="0" r="1" gradientUnits="userSpaceOnUse" gradientTransform="translate(48 39) rotate(180) scale(5)">
<stop offset="0.4909" stop-color="#5B666E"/>
<stop offset="0.6437" stop-color="#525A64"/>
<stop offset="0.9181" stop-color="#3C3B49"/>
<stop offset="1" stop-color="#343040"/>
</radialGradient>
<radialGradient id="paint4_radial" cx="0" cy="0" r="1" gradientUnits="userSpaceOnUse" gradientTransform="translate(7 39) rotate(180) scale(5)">
<stop offset="0.4909" stop-color="#5B666E"/>
<stop offset="0.6437" stop-color="#525A64"/>
<stop offset="0.9181" stop-color="#3C3B49"/>
<stop offset="1" stop-color="#343040"/>
</radialGradient>
<radialGradient id="paint5_radial" cx="0" cy="0" r="1" gradientUnits="userSpaceOnUse" gradientTransform="translate(20.3125 39) rotate(180) scale(5)">
<stop offset="0.4909" stop-color="#5B666E"/>
<stop offset="0.6437" stop-color="#525A64"/>
<stop offset="0.9181" stop-color="#3C3B49"/>
<stop offset="1" stop-color="#343040"/>
</radialGradient>
</defs>
</svg>
