<svg width="49" height="48" viewBox="0 0 49 48" fill="none" xmlns="http://www.w3.org/2000/svg">
<circle cx="23.702" cy="27.4074" r="8.85926" fill="#FFC528"/>
<path d="M22.9667 47H7.63333C6.00667 47 4.44664 46.3538 3.29641 45.2036C2.14619 44.0534 1.5 42.4933 1.5 40.8667V7.13333C1.5 5.50667 2.14619 3.94663 3.29641 2.79641C4.44664 1.64619 6.00667 1 7.63333 1H22.9667C24.5933 1 26.1534 1.64619 27.3036 2.79641C28.4538 3.94663 29.1 5.50667 29.1 7.13333V11.7333" stroke="#1D292E" stroke-width="1.5" stroke-linecap="round" stroke-linejoin="round"/>
<path d="M1.5 37.8H13.7667" stroke="#1D292E" stroke-width="1.5" stroke-linecap="round" stroke-linejoin="round"/>
<path d="M47.267 32.4886L42.2683 27.4879C41.2417 26.4612 39.8842 25.832 38.4373 25.7122C36.9904 25.5925 35.548 25.9898 34.3665 26.8336L31.0055 29.2359L26.6671 24.8996C26.3876 24.5932 26.0488 24.3466 25.6712 24.1749C25.2936 24.0032 24.8851 23.9099 24.4704 23.9006C24.0558 23.8912 23.6435 23.9662 23.2586 24.1208C22.8737 24.2754 22.5241 24.5065 22.2311 24.8C21.9381 25.0936 21.7077 25.4436 21.5538 25.8288C21.3999 26.214 21.3258 26.6264 21.3359 27.041C21.346 27.4557 21.4401 27.864 21.6125 28.2413C21.7849 28.6185 22.0321 28.9569 22.3391 29.2359L29.928 36.8248L27.3827 37.6733C26.5955 37.9326 25.9325 38.4748 25.5221 39.1949C25.1117 39.915 24.9832 40.7618 25.1613 41.5713C25.3394 42.3807 25.8116 43.0953 26.4863 43.5766C27.1611 44.0579 27.9905 44.2717 28.8138 44.1767L36.4355 43.3303" stroke="#1D292E" stroke-width="1.5" stroke-linecap="round" stroke-linejoin="round"/>
<path d="M18.3748 33.5087C17.1503 32.8054 16.104 31.8296 15.3172 30.657C14.5304 29.4843 14.0241 28.1463 13.8375 26.7465C13.6509 25.3467 13.7891 23.9228 14.2413 22.585C14.6934 21.2472 15.4475 20.0314 16.4451 19.0319C17.4427 18.0324 18.657 17.2759 19.9939 16.8211C21.3308 16.3663 22.7545 16.2254 24.1546 16.4092C25.5547 16.5931 26.8938 17.0968 28.068 17.8813C29.2421 18.6659 30.22 19.7102 30.9257 20.9333" stroke="#1D292E" stroke-width="1.5" stroke-linecap="round" stroke-linejoin="round"/>
</svg>
