<svg width="48" height="48" viewBox="0 0 48 48" fill="none" xmlns="http://www.w3.org/2000/svg">
<path d="M35 39H9" stroke="#1D292E" stroke-width="1.5" stroke-linecap="round" stroke-linejoin="round"/>
<circle cx="22.0403" cy="42.855" r="1" stroke="#1D292E"/>
<path d="M35 31V43C35 45.2 33.2 47 31 47H13C10.8 47 9 45.2 9 43V5C9 2.8 10.8 1 13 1H23" stroke="#1D292E" stroke-width="1.5" stroke-linecap="round" stroke-linejoin="round"/>
<circle cx="27.8534" cy="15.7645" r="9.92564" stroke="#1D292E" stroke-width="1.5"/>
<circle cx="28.5" cy="16.5" r="8.5" fill="#FFC528"/>
<path d="M28.4675 19.323V18.3075C29.6017 18.1288 30.2255 17.3295 30.2255 16.4644C30.2255 15.6181 29.6867 14.9128 28.4958 14.6495L27.6357 14.452C27.1915 14.358 26.9836 14.1135 26.9836 13.822C26.9836 13.4365 27.3144 13.0885 27.9193 13.0885C28.6943 13.0885 28.94 13.6339 28.9968 13.9631L30.1593 13.6339C30.027 13.0039 29.5544 12.2516 28.4675 12.0542V11.0198H27.5034V12.0259C26.4921 12.1858 25.717 12.9193 25.717 13.916C25.717 14.8188 26.3503 15.4582 27.3711 15.6839L28.2406 15.872C28.7132 15.9754 28.9495 16.2199 28.9495 16.5396C28.9495 16.9534 28.5903 17.2449 27.976 17.2449C27.1064 17.2449 26.7095 16.6995 26.6527 16.1071L25.4807 16.3892C25.5658 17.1885 26.1896 18.1382 27.5034 18.3169V19.323H28.4675Z" fill="#1D292E"/>
</svg>
