<svg width="24" height="38" viewBox="0 0 24 38" fill="none" xmlns="http://www.w3.org/2000/svg">
<path d="M20.5482 30.4132H0.765625" stroke="#1D292E" stroke-width="1.5" stroke-linecap="round" stroke-linejoin="round"/>
<circle cx="10.6832" cy="33.3461" r="0.880434" stroke="#1D292E"/>
<path d="M20.5482 24.3261V33.4565C20.5482 35.1304 19.1787 36.5 17.5048 36.5H3.8091C2.13519 36.5 0.765625 35.1304 0.765625 33.4565V4.54348C0.765625 2.86957 2.13519 1.5 3.8091 1.5H11.4178" stroke="#1D292E" stroke-width="1.5" stroke-linecap="round" stroke-linejoin="round"/>
<circle cx="15.111" cy="12.734" r="7.37277" stroke="#1D292E" stroke-width="1.5"/>
<circle cx="15.6061" cy="13.2932" r="6.46739" fill="#FFC528"/>
<path d="M15.5811 15.4417V14.669C16.4441 14.5331 16.9187 13.9249 16.9187 13.2667C16.9187 12.6227 16.5088 12.0861 15.6027 11.8858L14.9482 11.7355C14.6102 11.664 14.452 11.478 14.452 11.2562C14.452 10.9628 14.7037 10.6981 15.164 10.6981C15.7537 10.6981 15.9407 11.1131 15.9838 11.3635L16.8684 11.1131C16.7677 10.6337 16.4081 10.0613 15.5811 9.91105V9.12402H14.8476V9.88959C14.0781 10.0112 13.4884 10.5693 13.4884 11.3277C13.4884 12.0146 13.9702 12.5011 14.7469 12.6728L15.4085 12.8159C15.7681 12.8946 15.9479 13.0806 15.9479 13.3239C15.9479 13.6387 15.6746 13.8605 15.2071 13.8605C14.5455 13.8605 14.2435 13.4455 14.2003 12.9948L13.3086 13.2094C13.3733 13.8176 13.848 14.5402 14.8476 14.6762V15.4417H15.5811Z" fill="#1D292E"/>
</svg>
