<svg width="49" height="48" viewBox="0 0 49 48" fill="none" xmlns="http://www.w3.org/2000/svg">
<path d="M34.7253 22H17.2747C16.7599 22.0214 16.2714 22.2357 15.9042 22.6014C15.537 22.967 15.3173 23.4578 15.2879 23.9782L12.5208 40.557C12.4797 40.8517 12.4996 41.1518 12.5793 41.4383C12.659 41.7248 12.7967 41.9914 12.9837 42.2211C13.1707 42.4509 13.4028 42.6387 13.6654 42.7728C13.928 42.9069 14.2152 42.9843 14.509 43H37.491C37.7848 42.9843 38.072 42.9069 38.3346 42.7728C38.5972 42.6387 38.8293 42.4509 39.0163 42.2211C39.2033 41.9914 39.341 41.7248 39.4207 41.4383C39.5004 41.1518 39.5203 40.8517 39.4792 40.557L36.7121 23.9782C36.6827 23.4578 36.463 22.967 36.0958 22.6014C35.7285 22.2357 35.2401 22.0214 34.7253 22Z" fill="#FFC528"/>
<path d="M33.2734 17.5H12.2517C11.6316 17.5255 11.0432 17.7806 10.6009 18.2159C10.1585 18.6512 9.89385 19.2354 9.85838 19.855L6.52505 39.5917C6.47556 39.9425 6.49957 40.2998 6.59557 40.6408C6.69157 40.9819 6.85746 41.2993 7.08269 41.5728C7.30792 41.8463 7.58757 42.0699 7.90388 42.2296C8.22019 42.3892 8.56624 42.4813 8.92005 42.5H36.605C36.9589 42.4813 37.3049 42.3892 37.6212 42.2296C37.9375 42.0699 38.2172 41.8463 38.4424 41.5728C38.6676 41.2993 38.8335 40.9819 38.9295 40.6408C39.0255 40.2998 39.0495 39.9425 39.0001 39.5917L35.6667 19.855C35.6312 19.2354 35.3666 18.6512 34.9242 18.2159C34.4819 17.7806 33.8935 17.5255 33.2734 17.5Z" stroke="#1D292E" stroke-width="1.5" stroke-linecap="round" stroke-linejoin="round"/>
<path d="M28.905 12.595C28.6319 11.1649 27.8696 9.87433 26.7491 8.94471C25.6285 8.0151 24.2194 7.50433 22.7634 7.5V7.5C21.3128 7.50436 19.9086 8.01127 18.7897 8.93445C17.6709 9.85762 16.9065 11.14 16.6267 12.5633" stroke="#1D292E" stroke-width="1.5" stroke-linecap="round" stroke-linejoin="round"/>
<path d="M39.0134 5L35.2634 8.75V12.5H39.0134L42.7634 8.75L39.0134 5Z" stroke="#1D292E" stroke-width="1.5" stroke-linecap="round" stroke-linejoin="round"/>
</svg>
