<svg width="32" height="32" viewBox="0 0 32 32" fill="none" xmlns="http://www.w3.org/2000/svg">
<path d="M16 31C24.2843 31 31 24.2843 31 16C31 7.71573 24.2843 1 16 1C7.71573 1 1 7.71573 1 16C1 24.2843 7.71573 31 16 31Z" fill="url(#paint0_linear_3775_170360)"/>
<path d="M17.9249 10.657C16.8244 11.219 15.1749 11.219 14.0749 10.657C12.9004 10.0405 11.4659 9.64499 9.74691 9.49099C8.06991 9.34049 4.51341 9.34549 2.73441 9.98649C2.53041 10.0595 2.32991 10.154 2.13591 10.256C2.02641 10.313 2.00441 10.355 2.00441 10.564V10.834C2.00441 11.342 1.94241 11.1445 2.29691 11.356C2.98791 11.77 3.37991 12.8445 3.59041 14.3235C3.88991 16.48 4.92291 17.8305 6.60141 18.476C8.15891 19.0735 9.90141 19.053 11.4469 18.4225C12.2919 18.077 13.0339 17.53 13.6234 16.6435C14.6584 15.0885 14.3479 14.118 14.8814 12.7825C15.3464 11.6165 16.6529 11.6165 17.1189 12.7825C17.6529 14.118 17.3424 15.088 18.3769 16.6435C18.9649 17.5295 19.7079 18.0765 20.5539 18.4225C22.0989 19.0535 23.8409 19.074 25.3984 18.476C27.0769 17.8305 28.1114 16.48 28.4099 14.3235C28.6199 12.8445 29.0124 11.7705 29.7039 11.356C30.0584 11.1445 29.9959 11.342 29.9959 10.834V10.564C29.9959 10.355 29.9734 10.313 29.8649 10.256C29.6704 10.1545 29.4694 10.0595 29.2664 9.98649C27.4869 9.34549 23.9304 9.33999 22.2539 9.49099C20.5339 9.64499 19.0984 10.0405 17.9249 10.657Z" fill="#302C3B"/>
<path opacity="0.3" d="M18.6591 11.604C17.9901 12.198 18.5976 16.494 20.6286 17.289C21.8951 17.785 24.3866 18.0855 26.1081 16.5675C27.5181 15.325 27.8221 11.5625 26.8201 10.9775C25.7196 10.3345 20.0901 10.3345 18.6591 11.604Z" fill="url(#paint1_linear_3775_170360)"/>
<path opacity="0.3" d="M13.4285 11.6055C14.097 12.1995 13.49 16.496 11.4595 17.2905C10.192 17.7865 7.70096 18.087 5.97896 16.5695C4.56946 15.327 4.26496 11.5645 5.26696 10.979C6.36846 10.336 11.998 10.336 13.4285 11.6055Z" fill="url(#paint2_linear_3775_170360)"/>
<path d="M12.3294 25.0015C16.2044 26.0045 20.9654 24.4935 22.9764 21.3495C23.1404 21.0915 22.8844 20.818 22.6259 21.0225C20.5254 22.6805 16.0669 23.915 12.8019 22.9605C11.5519 22.5945 11.0084 24.659 12.3294 25.0015Z" fill="#302C3B"/>
<defs>
<linearGradient id="paint0_linear_3775_170360" x1="31.0001" y1="31" x2="31.0001" y2="1.00025" gradientUnits="userSpaceOnUse">
<stop stop-color="#FFA027"/>
<stop offset="0.2723" stop-color="#FFC151"/>
<stop offset="0.7633" stop-color="#FFC93F"/>
<stop offset="1" stop-color="#FFE261"/>
</linearGradient>
<linearGradient id="paint1_linear_3775_170360" x1="27.4085" y1="17.6919" x2="27.4085" y2="10.5542" gradientUnits="userSpaceOnUse">
<stop stop-color="#4E5E67"/>
<stop offset="0.2345" stop-color="#50606A"/>
<stop offset="0.381" stop-color="#576872"/>
<stop offset="0.5033" stop-color="#647681"/>
<stop offset="0.6124" stop-color="#758A95"/>
<stop offset="0.7126" stop-color="#8CA3B0"/>
<stop offset="0.8063" stop-color="#A7C2D1"/>
<stop offset="0.8934" stop-color="#C7E6F7"/>
<stop offset="0.9091" stop-color="#CEEDFF"/>
</linearGradient>
<linearGradient id="paint2_linear_3775_170360" x1="13.6888" y1="17.6934" x2="13.6888" y2="10.5557" gradientUnits="userSpaceOnUse">
<stop stop-color="#4E5E67"/>
<stop offset="0.2345" stop-color="#50606A"/>
<stop offset="0.381" stop-color="#576872"/>
<stop offset="0.5033" stop-color="#647681"/>
<stop offset="0.6124" stop-color="#758A95"/>
<stop offset="0.7126" stop-color="#8CA3B0"/>
<stop offset="0.8063" stop-color="#A7C2D1"/>
<stop offset="0.8934" stop-color="#C7E6F7"/>
<stop offset="0.9091" stop-color="#CEEDFF"/>
</linearGradient>
</defs>
</svg>
