<svg width="48" height="48" viewBox="0 0 48 48" fill="none" xmlns="http://www.w3.org/2000/svg">
<rect x="47.25" y="10.75" width="26.5" height="46.5" rx="2.25" transform="rotate(90 47.25 10.75)" stroke="#1D292E" stroke-width="1.5"/>
<rect x="3" y="26" width="42" height="9" rx="1" fill="#FFC528"/>
<rect x="47" y="15" width="4" height="46" transform="rotate(90 47 15)" stroke="#1D292E" stroke-width="1.5"/>
<path d="M38.8801 31.9361L38.8801 31.0721C39.8401 30.9201 40.3681 30.2401 40.3681 29.5041C40.3681 28.7841 39.9121 28.1841 38.9041 27.9601L38.1761 27.7921C37.8001 27.7121 37.6241 27.5041 37.6241 27.2561C37.6241 26.9281 37.9041 26.6321 38.4161 26.6321C39.0721 26.6321 39.2801 27.0961 39.3281 27.3761L40.3121 27.0961C40.2001 26.5601 39.8001 25.9201 38.8801 25.7521L38.8801 24.8721L38.0641 24.8721L38.0641 25.7281C37.2081 25.8641 36.5521 26.4881 36.5521 27.3361C36.5521 28.1041 37.0881 28.6481 37.9521 28.8401L38.6881 29.0001C39.0881 29.0881 39.2881 29.2961 39.2881 29.5681C39.2881 29.9201 38.9841 30.1681 38.4641 30.1681C37.7281 30.1681 37.3921 29.7041 37.3441 29.2001L36.3521 29.4401C36.4241 30.1201 36.9521 30.9281 38.0641 31.0801L38.0641 31.9361L38.8801 31.9361Z" fill="#1D292E"/>
<path d="M4.75464 32.1392C4.34043 32.1392 4.00464 32.475 4.00464 32.8892C4.00464 33.3034 4.34043 33.6392 4.75464 33.6392V32.1392ZM16.2998 33.6392C16.714 33.6392 17.0498 33.3034 17.0498 32.8892C17.0498 32.475 16.714 32.1392 16.2998 32.1392V33.6392ZM4.75464 33.6392H16.2998V32.1392H4.75464V33.6392Z" fill="#1D292E"/>
</svg>
