<svg width="25" height="24" viewBox="0 0 25 24" fill="none" xmlns="http://www.w3.org/2000/svg">
    <path fill-rule="evenodd" clip-rule="evenodd" d="M24.4604 4.58666C23.5968 4.97995 22.6669 5.24592 21.6915 5.36476C22.6876 4.7536 23.4519 3.78452 23.812 2.63011C22.8794 3.196 21.8488 3.60768 20.7479 3.82838C19.8705 2.86778 18.6164 2.26794 17.2286 2.26794C14.5673 2.26794 12.4083 4.48197 12.4083 7.21238C12.4083 7.60001 12.4497 7.97632 12.5324 8.33849C8.52473 8.13194 4.97229 6.16549 2.59249 3.17053C2.17724 3.90336 1.93995 4.7536 1.93995 5.65902C1.93995 7.37365 2.79115 8.8874 4.08521 9.77443C3.29608 9.75038 2.55111 9.52544 1.89994 9.15761V9.21844C1.89994 11.615 3.56235 13.614 5.76969 14.0667C5.36547 14.1827 4.93918 14.2407 4.49909 14.2407C4.18868 14.2407 3.88517 14.211 3.59132 14.153C4.20523 16.1166 5.98491 17.5469 8.09568 17.5851C6.44569 18.9121 4.36527 19.7029 2.10688 19.7029C1.71783 19.7029 1.33293 19.6803 0.956299 19.635C3.09053 21.0356 5.62621 21.8547 8.34815 21.8547C17.2189 21.8547 22.0682 14.3213 22.0682 7.78675C22.0682 7.57171 22.064 7.35668 22.0558 7.14588C22.998 6.44843 23.8161 5.57838 24.4604 4.58666Z" fill="white"/>
</svg>
