<svg width="28" height="31" viewBox="0 0 28 31" fill="none" xmlns="http://www.w3.org/2000/svg">
<path d="M2.8935 25.8625C4.244 25.179 9.8475 23.373 9.8475 23.373H18.195C18.195 23.373 23.7935 25.175 25.1355 25.8605C27.089 26.8565 27.5 30.499 27.5 30.499H0.5C0.5 30.499 0.9355 26.8535 2.8935 25.8625Z" fill="#006DAE"/>
<path d="M2.64536 26.009C2.93336 25.727 7.22936 24.179 8.57136 23.793C10.0799 27.993 12.6569 30.5 12.6569 30.5H2.31836L2.64536 26.009Z" fill="#302C3B"/>
<path d="M2.89359 25.8633C2.99809 25.7003 8.08909 23.7863 8.38859 23.8533C9.70909 27.9658 12.2071 30.4998 12.2071 30.4998H2.74609L2.89359 25.8633Z" fill="#F59E01"/>
<path d="M4.38965 25.2189C5.60465 24.6894 6.70515 24.3594 6.70515 24.3594L7.47065 30.4999H4.59065L4.38965 25.2189Z" fill="#FFE12C"/>
<path d="M25.3533 26.009C25.0643 25.727 20.7693 24.179 19.4263 23.793C17.9178 27.993 15.3428 30.5 15.3428 30.5H25.6808L25.3533 26.009Z" fill="#302C3B"/>
<path d="M25.1055 25.8633C25.001 25.7003 19.91 23.7863 19.6105 23.8533C18.289 27.9658 15.792 30.4998 15.792 30.4998H25.253L25.1055 25.8633Z" fill="#F59E01"/>
<path d="M23.6103 25.2189C22.3953 24.6894 21.2938 24.3594 21.2938 24.3594L20.5283 30.4999H23.4083L23.6103 25.2189Z" fill="#FFE12C"/>
<path d="M9.625 24.1721C9.625 26.9456 18.375 26.9456 18.375 24.1721C18.375 22.4806 18.375 19.6836 18.375 19.6836H9.625C9.625 19.6836 9.625 21.9876 9.625 24.1721Z" fill="#E6B045"/>
<path d="M5.45008 11.6177C2.59058 11.1022 4.82408 19.0962 7.06258 16.8912C8.09858 15.8687 6.78708 11.8592 5.45008 11.6177Z" fill="#E6B045"/>
<path d="M22.5501 11.6177C21.2131 11.8587 19.9006 15.8687 20.9386 16.8912C23.1771 19.0962 25.4071 11.1022 22.5501 11.6177Z" fill="#E6B045"/>
<path d="M13.9998 2.24414C8.08775 2.24414 5.23925 6.71664 5.59625 12.9361C5.66775 14.1881 6.44275 18.2691 7.17525 19.7331C7.92425 21.2301 10.4313 23.5396 11.9672 24.0181C12.9367 24.3201 15.0612 24.3201 16.0307 24.0181C17.5667 23.5396 20.0737 21.2301 20.8237 19.7331C21.5562 18.2691 22.3317 14.1881 22.4028 12.9361C22.7603 6.71714 19.9117 2.24414 13.9998 2.24414Z" fill="#FFCC66"/>
<path d="M14.0002 19.1743C12.6702 18.7828 10.7002 19.3588 10.7002 19.3588C11.4502 20.1763 12.0002 21.2368 14.0002 21.2368C16.2912 21.2368 16.6797 20.0338 17.3002 19.3588C17.3002 19.3588 15.3282 18.7808 14.0002 19.1743Z" fill="#E6A400"/>
<path d="M11.2031 19.498C12.5966 20.668 15.4121 20.675 16.8136 19.498C15.3281 19.5615 12.6991 19.5625 11.2031 19.498Z" fill="white"/>
<path d="M15.833 16.9747C15.833 18.1682 12.167 18.1682 12.167 16.9747C12.167 16.7012 15.833 16.7012 15.833 16.9747Z" fill="#E6B045"/>
<path d="M21.7881 10.5371C22.3611 12.4471 21.9951 13.2501 22.1806 14.6191C22.5451 13.2656 22.7696 12.0761 22.8761 10.5371H21.7881V10.5371Z" fill="#453631"/>
<path d="M6.21399 10.5371H5.10449C5.25899 12.2636 5.49799 13.4981 5.82149 14.6191C6.00599 13.2501 5.58899 12.6786 6.21399 10.5371Z" fill="#453631"/>
<path d="M20.3293 13.4171C19.5393 15.4846 16.3253 15.1816 15.7363 13.7346C16.1838 11.4091 19.8958 11.2111 20.3293 13.4171Z" fill="white"/>
<path d="M7.66992 13.4179C8.45992 15.4854 11.6749 15.1824 12.2629 13.7354C11.8154 11.4089 8.10442 11.2109 7.66992 13.4179Z" fill="white"/>
<path d="M20.6568 10.9281C19.3043 10.2566 16.7173 10.2246 15.7533 10.6916C15.5473 10.7826 15.6828 11.4191 15.8568 11.3576C17.2008 10.8606 19.3668 10.8486 20.6243 11.4006C20.7918 11.4721 20.8623 11.0221 20.6568 10.9281Z" fill="#C1873C"/>
<path d="M7.34343 10.9281C8.69493 10.2566 11.2819 10.2246 12.2469 10.6916C12.4529 10.7826 12.3174 11.4191 12.1434 11.3576C10.7979 10.8606 8.63343 10.8486 7.37493 11.4006C7.20743 11.4721 7.13793 11.0221 7.34343 10.9281Z" fill="#C1873C"/>
<path d="M16.5566 13.1973C16.5566 15.0118 19.1816 15.0118 19.1816 13.1973C19.1816 11.5123 16.5566 11.5123 16.5566 13.1973Z" fill="#613F34"/>
<path d="M16.8164 13.7772C16.8164 14.8172 18.9219 14.8172 18.9219 13.7772C18.9219 12.8112 16.8164 12.8112 16.8164 13.7772Z" fill="#7D5037"/>
<path d="M17.3242 13.2247C17.3242 13.9787 18.4142 13.9787 18.4142 13.2247C18.4142 12.5267 17.3242 12.5267 17.3242 13.2247Z" fill="#1A1626"/>
<path d="M16.9521 13.0046C16.9521 13.3856 17.5031 13.3856 17.5031 13.0046C17.5031 12.6521 16.9521 12.6521 16.9521 13.0046Z" fill="#AB968C"/>
<path d="M8.81836 13.1973C8.81836 15.0118 11.4434 15.0118 11.4434 13.1973C11.4434 11.5123 8.81836 11.5123 8.81836 13.1973Z" fill="#613F34"/>
<path d="M9.07812 13.7772C9.07812 14.8182 11.1836 14.8182 11.1836 13.7772C11.1836 12.8112 9.07812 12.8112 9.07812 13.7772Z" fill="#7D5037"/>
<path d="M9.58594 13.2254C9.58594 13.9784 10.6759 13.9784 10.6759 13.2254C10.6759 12.5264 9.58594 12.5264 9.58594 13.2254Z" fill="#1A1626"/>
<path d="M9.21387 13.0054C9.21387 13.3854 9.76387 13.3854 9.76387 13.0054C9.76337 12.6519 9.21387 12.6519 9.21387 13.0054Z" fill="#AB968C"/>
<path d="M20.3293 13.4012C20.3293 11.1807 15.7363 11.1807 15.7363 13.7527C16.3928 11.6422 19.6733 11.6422 20.3293 13.4012Z" fill="#E6B045"/>
<path d="M7.66992 13.4013C7.66992 11.1808 12.2629 11.1808 12.2629 13.7518C11.6074 11.6413 8.32592 11.6413 7.66992 13.4013Z" fill="#E6B045"/>
<path d="M23.6598 11.0454H4.33984C4.33984 5.82989 6.75684 1.77539 13.9998 1.77539C21.2428 1.77539 23.6598 5.82989 23.6598 11.0454Z" fill="#FFE12C"/>
<path d="M18.1301 8.73547V2.33997L14.0011 1.10547L9.8711 2.33997V8.73547C5.9921 9.24347 3.2666 10.4445 3.2666 11.8475H24.7336C24.7336 10.4445 22.0081 9.24297 18.1301 8.73547Z" fill="#F9B700"/>
<path d="M17.4139 9.8385H10.5869V2.156C10.5869 -0.052 17.4139 -0.052 17.4139 2.156V9.8385Z" fill="#FFE12C"/>
<path opacity="0.2" d="M23.7254 12.2506H4.27344C4.37794 12.0486 4.53994 11.8471 4.53994 11.8471H23.4589C23.4589 11.8471 23.6064 12.0006 23.7254 12.2506Z" fill="black"/>
</svg>
