<svg width="48" height="48" viewBox="0 0 48 48" fill="none" xmlns="http://www.w3.org/2000/svg">
<path d="M24.8359 10.3645C25.7143 11.2431 25.7143 12.6674 24.8359 13.546" stroke="#1D292E" stroke-width="1.5" stroke-linecap="round" stroke-linejoin="round"/>
<path d="M28.0176 7.18146C29.2835 8.44733 29.9946 10.1642 29.9946 11.9545C29.9946 13.7447 29.2835 15.4616 28.0176 16.7275" stroke="#1D292E" stroke-width="1.5" stroke-linecap="round" stroke-linejoin="round"/>
<path d="M31.1953 4C33.3053 6.10981 34.4907 8.97142 34.4907 11.9553C34.4907 14.9391 33.3053 17.8007 31.1953 19.9105" stroke="#1D292E" stroke-width="1.5" stroke-linecap="round" stroke-linejoin="round"/>
<path d="M18.6529 10.3645C17.7746 11.2431 17.7746 12.6674 18.6529 13.546" stroke="#1D292E" stroke-width="1.5" stroke-linecap="round" stroke-linejoin="round"/>
<path d="M15.4722 7.18146C14.2063 8.44733 13.4951 10.1642 13.4951 11.9545C13.4951 13.7447 14.2063 15.4616 15.4722 16.7275" stroke="#1D292E" stroke-width="1.5" stroke-linecap="round" stroke-linejoin="round"/>
<path d="M12.2953 4C10.1854 6.10981 9 8.97142 9 11.9553C9 14.9391 10.1854 17.8007 12.2953 19.9105" stroke="#1D292E" stroke-width="1.5" stroke-linecap="round" stroke-linejoin="round"/>
<path d="M22 34.4527H4.64195C2.63056 34.4527 1 32.8949 1 30.9733V27.4938C1 25.5722 2.63056 24.0143 4.64195 24.0143H32.5" stroke="#1D292E" stroke-width="1.5" stroke-linecap="round" stroke-linejoin="round"/>
<path d="M8.73942 28.7985C8.488 28.7985 8.28418 28.9932 8.28418 29.2334C8.28418 29.4736 8.488 29.6683 8.73942 29.6683C8.99085 29.6683 9.19467 29.4736 9.19467 29.2334C9.19467 28.9932 8.99085 28.7985 8.73942 28.7985V28.7985" stroke="#1D292E" stroke-width="1.5" stroke-linecap="round" stroke-linejoin="round"/>
<path d="M15.1125 28.7985C14.861 28.7985 14.6572 28.9932 14.6572 29.2334C14.6572 29.4736 14.861 29.6683 15.1125 29.6683C15.3639 29.6683 15.5677 29.4736 15.5677 29.2334C15.5677 28.9932 15.3639 28.7985 15.1125 28.7985V28.7985" stroke="#1D292E" stroke-width="1.5" stroke-linecap="round" stroke-linejoin="round"/>
<path d="M21.9414 24.0143V15.3156" stroke="#1D292E" stroke-width="1.5" stroke-linecap="round" stroke-linejoin="round"/>
<path d="M7.37306 34.4527L4.6416 37.9321" stroke="#1D292E" stroke-width="1.5" stroke-linecap="round" stroke-linejoin="round"/>
<path d="M36.5 27L27 36V45.5H42.6858V35.5H45.5L36.5 27Z" fill="#FFC528"/>
<path fill-rule="evenodd" clip-rule="evenodd" d="M33.1667 38.2084H36.8333C37.3396 38.2084 37.75 38.6188 37.75 39.125V45.5417H32.25V39.125C32.25 38.6188 32.6604 38.2084 33.1667 38.2084Z" stroke="#1D292E" stroke-width="1.5" stroke-linecap="round" stroke-linejoin="round"/>
<path d="M35.3099 25.6601L39.1251 29.17L41.8751 31.7L45.3942 35.121C45.5333 35.249 45.5796 35.4491 45.5108 35.6251C45.4421 35.8011 45.2724 35.9169 45.0834 35.9167H42.7918V44.625C42.7918 45.1313 42.3814 45.5417 41.8751 45.5417H28.1251C27.6188 45.5417 27.2084 45.1313 27.2084 44.625V35.9167H24.9168C24.7276 35.9173 24.5576 35.8016 24.4886 35.6255C24.4196 35.4494 24.4659 35.2491 24.6051 35.121L34.6884 25.6601C34.864 25.4982 35.1344 25.4982 35.3099 25.6601Z" stroke="#1D292E" stroke-width="1.5" stroke-linecap="round" stroke-linejoin="round"/>
</svg>
