<svg width="24" height="24" viewBox="0 0 24 24" fill="none" xmlns="http://www.w3.org/2000/svg">
    <path fill-rule="evenodd" clip-rule="evenodd" d="M10.1341 15.7467L10.1334 8.89137L16.0095 12.3309L10.1341 15.7467ZM23.6091 7.586C23.6091 7.586 23.3792 5.95493 22.6748 5.23667C21.781 4.29353 20.7791 4.2891 20.32 4.23436C17.0309 3.99469 12.0973 3.99469 12.0973 3.99469H12.087C12.087 3.99469 7.15333 3.99469 3.86423 4.23436C3.40443 4.2891 2.40331 4.29353 1.50868 5.23667C0.804294 5.95493 0.575129 7.586 0.575129 7.586C0.575129 7.586 0.340088 9.50185 0.340088 11.417V13.213C0.340088 15.1289 0.575129 17.044 0.575129 17.044C0.575129 17.044 0.804294 18.675 1.50868 19.3933C2.40331 20.3364 3.57778 20.3068 4.10074 20.4052C5.98107 20.5872 12.0921 20.6434 12.0921 20.6434C12.0921 20.6434 17.0309 20.636 20.32 20.3964C20.7791 20.3409 21.781 20.3364 22.6748 19.3933C23.3792 18.675 23.6091 17.044 23.6091 17.044C23.6091 17.044 23.8442 15.1289 23.8442 13.213V11.417C23.8442 9.50185 23.6091 7.586 23.6091 7.586Z" fill="white"/>
</svg>
